<svg height="702" width="720" xmlns="http://www.w3.org/2000/svg">
<rect height="702" fill="#555" width="720"></rect>
<text fill="#7f7" font-family="Courier New" font-size="12" xml:space="preserve">
<tspan x="10" y="26">2018-02-17 07:43:25 +0700</tspan>

<tspan x="10" y="42">update.build</tspan>

<tspan x="10" y="58"></tspan>

<tspan x="10" y="74">2018-02-17 06:51:25 +0700</tspan>

<tspan x="10" y="90">update.build</tspan>

<tspan x="10" y="106"></tspan>

<tspan x="10" y="122">2018-02-17 06:40:29 +0700</tspan>

<tspan x="10" y="138">update.build</tspan>

<tspan x="10" y="154"></tspan>

<tspan x="10" y="170">2018-01-22 22:37:56 +0700</tspan>

<tspan x="10" y="186">update</tspan>

<tspan x="10" y="202"></tspan>

<tspan x="10" y="218">2018-01-22 22:29:40 +0700</tspan>

<tspan x="10" y="234">swggAll</tspan>

<tspan x="10" y="250"></tspan>

<tspan x="10" y="266">2018-01-22 22:20:07 +0700</tspan>

<tspan x="10" y="282">update</tspan>

<tspan x="10" y="298"></tspan>

<tspan x="10" y="314">2018-01-15 23:22:10 +0700</tspan>

<tspan x="10" y="330">minor</tspan>

<tspan x="10" y="346"></tspan>

<tspan x="10" y="362">2017-12-12 19:25:41 +0700</tspan>

<tspan x="10" y="378">- sync with $npm_package_githubRepoAlias</tspan>

<tspan x="10" y="394"></tspan>

<tspan x="10" y="410">2017-11-25 17:39:47 +0800</tspan>

<tspan x="10" y="426">[build clean]</tspan>

<tspan x="10" y="442"></tspan>

<tspan x="10" y="458">2017-11-23 20:15:10 +0800</tspan>

<tspan x="10" y="474">[npm publish] - npm publish 2017.11.22</tspan>

<tspan x="10" y="490">- update swgg-client</tspan>

<tspan x="10" y="506"></tspan>

<tspan x="10" y="522">2017-11-09 03:26:40 +0800</tspan>

<tspan x="10" y="538">[npm publish] - npm publish 2017.11.9</tspan>

<tspan x="10" y="554">- remove unused browser-code when building README.md</tspan>

<tspan x="10" y="570">- update docs</tspan>

<tspan x="10" y="586"></tspan>

<tspan x="10" y="602">2017-10-24 21:52:59 +0800</tspan>

<tspan x="10" y="618">[npm publish] - npm publish 2017.10.23</tspan>

<tspan x="10" y="634">- initial working package</tspan>

<tspan x="10" y="650"></tspan>

<tspan x="10" y="666">2014-03-26 02:31:50 +0700</tspan>

<tspan x="10" y="682">add blank README.md</tspan>

</text>
</svg>
