<svg height="606" width="720" xmlns="http://www.w3.org/2000/svg">
<rect height="606" fill="#555" width="720"></rect>
<text fill="#7f7" font-family="Courier New" font-size="12" xml:space="preserve">
<tspan x="10" y="26"></tspan>

<tspan x="10" y="42">[MODE_BUILD=buildApp] - 2018-06-20T07:48:14.320Z - npm-testing /home/travis/build/kaizhu256/node\</tspan>
<tspan x="10" y="58">-swgg-google-translate</tspan>

<tspan x="10" y="74"></tspan>

<tspan x="10" y="90"></tspan>

<tspan x="10" y="106">buildApp - merged test-report from file /home/travis/build/kaizhu256/node-swgg-google-translate/\</tspan>
<tspan x="10" y="122">tmp/build/test-report.json</tspan>

<tspan x="10" y="138">override assets /home/travis/build/kaizhu256/node-swgg-google-translate/assets.swgg.swagger.json</tspan>

<tspan x="10" y="154">&gt; server listening on http-port 37341</tspan>

<tspan x="10" y="170">&gt; server listening on http-port 44927</tspan>

<tspan x="10" y="186">[node test-case 1 of 1 passed] - testCase_buildApp_default</tspan>

<tspan x="10" y="202"></tspan>

<tspan x="10" y="218">buildApp - merged test-report from file /home/travis/build/kaizhu256/node-swgg-google-translate/\</tspan>
<tspan x="10" y="234">tmp/build/test-report.json</tspan>

<tspan x="10" y="250"></tspan>

<tspan x="10" y="266">-------------------------------------------------------</tspan>

<tspan x="10" y="282">| test-report - buildApidoc - node - linux v6.14.3 - 2018-06-20T07:47:48.137Z</tspan>

<tspan x="10" y="298">|   31908 ms            0 failed        1 passed      |</tspan>

<tspan x="10" y="314">-------------------------------------------------------</tspan>

<tspan x="10" y="330">| test-report - npmTest - browser - /index.default.html - Mozilla/5.0 (X11; Linux x86_64) AppleW\</tspan>
<tspan x="10" y="346">ebKit/537.36 (KHTML, like Gecko) Chrome/58.0.3029.110 Electron/1.7.15 Safari/537.36 - 2018-06-20\</tspan>
<tspan x="10" y="362">T07:47:30.425Z</tspan>

<tspan x="10" y="378">|      17 ms            0 failed        8 passed      |</tspan>

<tspan x="10" y="394">-------------------------------------------------------</tspan>

<tspan x="10" y="410">| test-report - npmTest - node - linux v6.14.3 - 2018-06-20T07:47:28.280Z</tspan>

<tspan x="10" y="426">|   16518 ms            0 failed        8 passed      |</tspan>

<tspan x="10" y="442">-------------------------------------------------------</tspan>

<tspan x="10" y="458"></tspan>

<tspan x="10" y="474">created test-report file /home/travis/build/kaizhu256/node-swgg-google-translate/tmp/build/test-\</tspan>
<tspan x="10" y="490">report.html</tspan>

<tspan x="10" y="506"></tspan>

<tspan x="10" y="522"></tspan>

<tspan x="10" y="538">buildApp - 0 failed tests</tspan>

<tspan x="10" y="554"></tspan>

<tspan x="10" y="570"></tspan>

<tspan x="10" y="586">[MODE_BUILD=buildApp] - 2018-06-20T07:48:21.784Z - EXIT_CODE - 0</tspan>

</text>
</svg>
